<svg xmlns="http://www.w3.org/2000/svg" xmlns:xlink="http://www.w3.org/1999/xlink" viewBox="0 0 24.33 24"><defs><style>.cls-1{fill:#231f20;stroke-miterlimit:10;stroke-width:0.75px;stroke:url(#White_Black);}.cls-2{fill:#ed1c24;}</style><linearGradient id="White_Black" y1="12" x2="24.33" y2="12" gradientUnits="userSpaceOnUse"><stop offset="0" stop-color="#fff"/><stop offset="1" stop-color="#231f20"/></linearGradient></defs><g id="Layer_2" data-name="Layer 2"><g id="Layer_1-2" data-name="Layer 1"><path class="cls-1" d="M24,12A11.71,11.71,0,0,1,12.17,23.62,11.7,11.7,0,0,1,.38,12,11.7,11.7,0,0,1,12.17.38,11.71,11.71,0,0,1,24,12Z"/><path class="cls-2" d="M11.19,8a3,3,0,1,0-4.12,4.3l1.54,1.48,4.31-4.13Z"/><path class="cls-2" d="M18.77,12.3A3,3,0,1,0,14.65,8L12.92,9.66l4.3,4.13Z"/><polygon class="cls-2" points="12.92 9.66 8.61 13.79 12.92 17.91 17.22 13.79 12.92 9.66"/></g></g></svg>