<svg xmlns="http://www.w3.org/2000/svg" xmlns:xlink="http://www.w3.org/1999/xlink" viewBox="0 0 24.33 24"><defs><style>.cls-1{fill:#231f20;stroke-width:0.75px;stroke:url(#White_Black);}.cls-1,.cls-2{stroke-miterlimit:10;}.cls-2{fill:none;stroke:#fff;stroke-width:0.5px;}</style><linearGradient id="White_Black" y1="12" x2="24.33" y2="12" gradientUnits="userSpaceOnUse"><stop offset="0" stop-color="#fff"/><stop offset="1" stop-color="#231f20"/></linearGradient></defs><g id="Layer_2" data-name="Layer 2"><g id="Layer_1-2" data-name="Layer 1"><ellipse class="cls-1" cx="12.17" cy="12" rx="11.79" ry="11.63"/><path class="cls-2" d="M15,12.66a2.19,2.19,0,0,1-2.33,2h0a2.2,2.2,0,0,1-2.34-2v-.22a2.2,2.2,0,0,1,2.34-2h0a2.19,2.19,0,0,1,2.33,2Z"/><path class="cls-2" d="M20.29,12.55A5.35,5.35,0,0,1,15,18h-4.5a5.35,5.35,0,0,1-5.25-5.45h0A5.35,5.35,0,0,1,10.54,7.1H15a5.35,5.35,0,0,1,5.25,5.45Z"/></g></g></svg>